<mxfile host="app.diagrams.net" modified="2023-12-20T08:04:19.412Z" agent="Mozilla/5.0 (Macintosh; Intel Mac OS X 10_15_7) AppleWebKit/605.1.15 (KHTML, like Gecko) Version/17.1.2 Safari/605.1.15" version="22.1.11" etag="ua_jhq2Eq2d6its2E2oS" type="github">
  <diagram name="Page-1" id="z4SvRLHKC_VV6Daz1AeH">
    <mxGraphModel>
      <root>
        <mxCell id="0" />
        <mxCell id="1" parent="0" />
      </root>
    </mxGraphModel>
  </diagram>
</mxfile>
